<svg width="45" height="45" viewBox="0 0 45 45" fill="none" xmlns="http://www.w3.org/2000/svg">
<g filter="url(#filter0_d_119_374)">
<path d="M22.5 0.5L26.1641 6.52131L32.5019 3.43681L32.3289 10.4832L39.3282 11.3148L35.3731 17.1491L40.8117 21.6328L34.3302 24.4027L36.4814 31.1149L29.5313 29.9409L27.7121 36.7506L22.5 32.0055L17.2879 36.7506L15.4687 29.9409L8.51863 31.1149L10.6698 24.4027L4.1883 21.6328L9.62688 17.1491L5.67181 11.3148L12.6711 10.4832L12.4981 3.43681L18.8359 6.52131L22.5 0.5Z" fill="#FAFF00"/>
<path d="M22.5 1.46184L25.7369 6.78123L25.9736 7.1701L26.3829 6.9709L31.9818 4.24596L31.8291 10.4709L31.8179 10.926L32.2699 10.9797L38.4533 11.7144L34.9593 16.8686L34.7038 17.2454L35.0551 17.5349L39.8596 21.4959L34.1337 23.9429L33.7151 24.1218L33.8541 24.5553L35.7545 30.4851L29.6146 29.4479L29.1657 29.3721L29.0482 29.8119L27.4411 35.8277L22.8366 31.6358L22.5 31.3293L22.1634 31.6358L17.5589 35.8277L15.9518 29.8119L15.8343 29.3721L15.3854 29.4479L9.24554 30.4851L11.1459 24.5553L11.2849 24.1218L10.8663 23.9429L5.14036 21.4959L9.94494 17.5349L10.2962 17.2454L10.0407 16.8686L6.54673 11.7144L12.7301 10.9797L13.1821 10.926L13.1709 10.4709L13.0182 4.24596L18.6171 6.9709L19.0264 7.1701L19.2631 6.78123L22.5 1.46184Z" stroke="#FAFF00"/>
</g>
<path d="M26.295 16.6385L26.6275 19.0961L23.8845 19.4672L24.2642 22.2736L21.6639 22.6254L21.2842 19.819L18.5412 20.1901L18.2087 17.7325L20.9517 17.3614L20.5698 14.5391L23.1702 14.1873L23.552 17.0096L26.295 16.6385Z" fill="#191ABE"/>
<defs>
<filter id="filter0_d_119_374" x="0.188293" y="0.5" width="44.6234" height="44.2506" filterUnits="userSpaceOnUse" color-interpolation-filters="sRGB">
<feFlood flood-opacity="0" result="BackgroundImageFix"/>
<feColorMatrix in="SourceAlpha" type="matrix" values="0 0 0 0 0 0 0 0 0 0 0 0 0 0 0 0 0 0 127 0" result="hardAlpha"/>
<feOffset dy="4"/>
<feGaussianBlur stdDeviation="2"/>
<feComposite in2="hardAlpha" operator="out"/>
<feColorMatrix type="matrix" values="0 0 0 0 0 0 0 0 0 0 0 0 0 0 0 0 0 0 0.25 0"/>
<feBlend mode="normal" in2="BackgroundImageFix" result="effect1_dropShadow_119_374"/>
<feBlend mode="normal" in="SourceGraphic" in2="effect1_dropShadow_119_374" result="shape"/>
</filter>
</defs>
</svg>
