<svg width="11" height="12" viewBox="0 0 11 12" fill="none" xmlns="http://www.w3.org/2000/svg">
<g id="building">
<mask id="mask0_73_553" style="mask-type:alpha" maskUnits="userSpaceOnUse" x="0" y="0" width="11" height="12">
<rect id="Bounding box" x="0.166656" y="0.47522" width="10.6667" height="10.6667" fill="#D9D9D9"/>
</mask>
<g mask="url(#mask0_73_553)">
<path id="apartment" d="M1.5 9.80859V3.58637H3.27778V1.80859H7.72222V5.36415H9.5V9.80859H5.94444V8.03082H5.05556V9.80859H1.5ZM2.38889 8.9197H3.27778V8.03082H2.38889V8.9197ZM2.38889 7.14193H3.27778V6.25304H2.38889V7.14193ZM2.38889 5.36415H3.27778V4.47526H2.38889V5.36415ZM4.16667 7.14193H5.05556V6.25304H4.16667V7.14193ZM4.16667 5.36415H5.05556V4.47526H4.16667V5.36415ZM4.16667 3.58637H5.05556V2.69748H4.16667V3.58637ZM5.94444 7.14193H6.83333V6.25304H5.94444V7.14193ZM5.94444 5.36415H6.83333V4.47526H5.94444V5.36415ZM5.94444 3.58637H6.83333V2.69748H5.94444V3.58637ZM7.72222 8.9197H8.61111V8.03082H7.72222V8.9197ZM7.72222 7.14193H8.61111V6.25304H7.72222V7.14193Z" fill="white"/>
</g>
</g>
</svg>
