<svg width="25" height="25" viewBox="0 0 25 25" fill="none" xmlns="http://www.w3.org/2000/svg">
<g id="discord-2">
<path id="Vector" d="M16.4573 8.55951C15.7076 8.2042 14.9191 7.94779 14.1058 7.80859C14.0033 7.99541 13.8866 8.24815 13.8053 8.44962C12.9425 8.31775 12.062 8.31775 11.1993 8.44962C11.1073 8.22984 11.0048 8.01738 10.8916 7.80859C10.0784 7.95145 9.2863 8.2042 8.53667 8.56317C7.05156 10.8562 6.64846 13.0943 6.85001 15.2994C7.71986 15.9698 8.69579 16.4789 9.73537 16.8086C9.96874 16.4789 10.1774 16.1346 10.3542 15.7683C10.0182 15.6364 9.69293 15.4753 9.38177 15.2884C9.4631 15.2262 9.54089 15.1602 9.61514 15.098C11.4432 15.9917 13.5613 15.9917 15.3859 15.098C15.4637 15.1639 15.545 15.2298 15.6228 15.2884C15.3116 15.4789 14.9863 15.6401 14.6468 15.772C14.8236 16.1346 15.0323 16.4826 15.2656 16.8086C16.3052 16.4826 17.2811 15.9734 18.151 15.2994C18.3844 12.7463 17.7444 10.5265 16.4537 8.56317L16.4573 8.55951ZM10.6052 13.9441C10.043 13.9441 9.57978 13.4093 9.57978 12.7536C9.57978 12.098 10.0324 11.5595 10.6052 11.5595C11.178 11.5595 11.6342 12.0943 11.6307 12.75C11.6271 13.4057 11.178 13.9441 10.6052 13.9441ZM14.3923 13.9441C13.83 13.9441 13.3668 13.4093 13.3668 12.7536C13.3668 12.098 13.8194 11.5595 14.3923 11.5595C14.9651 11.5595 15.4212 12.0943 15.4177 12.75C15.4142 13.4057 14.9651 13.9441 14.3923 13.9441Z" fill="white"/>
<rect x="1" y="0.808594" width="23" height="23" rx="11.5" stroke="url(#paint0_linear_73_595)"/>
</g>
<defs>
<linearGradient id="paint0_linear_73_595" x1="12.5" y1="28.8934" x2="12.5" y2="-3.89096" gradientUnits="userSpaceOnUse">
<stop stop-color="#EDEDEE"/>
<stop offset="0.494792" stop-color="#181C24"/>
<stop offset="1" stop-color="#EDEDEE"/>
</linearGradient>
</defs>
</svg>
