<svg width="25" height="25" viewBox="0 0 25 25" fill="none" xmlns="http://www.w3.org/2000/svg">
<path d="M15.147 9.09229C14.8239 9.09229 14.5587 9.35265 14.5587 9.68052C14.5587 10.0084 14.8191 10.2688 15.147 10.2688C15.4748 10.2688 15.7352 10.0084 15.7352 9.68052C15.7352 9.35265 15.4748 9.09229 15.147 9.09229Z" fill="white"/>
<path d="M12.5433 9.84448C11.1836 9.84448 10.0794 10.9486 10.0794 12.3083C10.0794 13.668 11.1836 14.7722 12.5433 14.7722C13.903 14.7722 15.0071 13.668 15.0071 12.3083C15.0071 10.9486 13.903 9.84448 12.5433 9.84448ZM12.5433 13.885C11.6754 13.885 10.9666 13.1762 10.9666 12.3083C10.9666 11.4404 11.6754 10.7317 12.5433 10.7317C13.4112 10.7317 14.1199 11.4404 14.1199 12.3083C14.1199 13.1762 13.4112 13.885 12.5433 13.885Z" fill="white"/>
<path d="M14.4961 17.3083H10.5039C8.84523 17.3083 7.5 15.9583 7.5 14.3045V10.3122C7.5 8.65358 8.84523 7.30835 10.5039 7.30835H14.4961C16.1548 7.30835 17.5 8.65358 17.5 10.3122V14.3045C17.5 15.9631 16.15 17.3083 14.4961 17.3083ZM10.5039 8.24856C9.36596 8.24856 8.44021 9.17431 8.44021 10.3122V14.3045C8.44021 15.4424 9.36596 16.3681 10.5039 16.3681H14.4961C15.634 16.3681 16.5598 15.4424 16.5598 14.3045V10.3122C16.5598 9.17431 15.634 8.24856 14.4961 8.24856H10.5039Z" fill="white"/>
<rect x="1" y="0.808594" width="23" height="22.9996" rx="11.4998" stroke="url(#paint0_linear_73_584)"/>
<defs>
<linearGradient id="paint0_linear_73_584" x1="12.5" y1="28.8928" x2="12.5" y2="-3.89089" gradientUnits="userSpaceOnUse">
<stop stop-color="#EDEDEE"/>
<stop offset="0.494792" stop-color="#181C24"/>
<stop offset="1" stop-color="#EDEDEE"/>
</linearGradient>
</defs>
</svg>
