<svg width="25" height="25" viewBox="0 0 25 25" fill="none" xmlns="http://www.w3.org/2000/svg">
<g id="linkedin">
<path id="Vector" d="M17.4934 17.3081C17.4974 17.2426 17.5029 17.1937 17.5029 17.1447C17.5034 15.9667 17.5119 14.7883 17.4979 13.6103C17.4929 13.2006 17.4599 12.787 17.392 12.3833C17.2541 11.56 16.8184 10.9735 15.9755 10.7562C15.4928 10.6318 15.0007 10.6133 14.5095 10.6813C13.9219 10.7627 13.4068 10.9855 13.064 11.5046C13.0615 11.5086 13.0435 11.5026 13.0196 11.4996C13.0196 11.2228 13.0196 10.944 13.0196 10.6603C12.3955 10.6603 11.7839 10.6603 11.1774 10.6603C11.1774 12.8879 11.1774 15.0975 11.1774 17.3046C11.8264 17.3046 12.4585 17.3046 13.1045 17.3046C13.1045 17.2097 13.104 17.1292 13.1045 17.0488C13.1135 15.8773 13.1135 14.7053 13.139 13.5338C13.144 13.311 13.2159 13.0767 13.3094 12.8714C13.5217 12.4053 13.9389 12.2844 14.4111 12.2969C14.8713 12.3089 15.206 12.5227 15.3434 12.9653C15.4269 13.2351 15.4813 13.5248 15.4858 13.8066C15.5028 14.8972 15.4948 15.9882 15.4958 17.0793C15.4958 17.1522 15.4958 17.2252 15.4958 17.3086C16.1703 17.3081 16.8219 17.3081 17.4934 17.3081ZM9.82381 10.6553C9.03836 10.6553 8.2754 10.6553 7.50894 10.6553C7.50894 12.8809 7.50894 15.0935 7.50894 17.3066C8.28789 17.3066 9.05085 17.3066 9.82381 17.3066C9.82381 15.086 9.82381 12.8779 9.82381 10.6553ZM8.67461 7.30865C8.03856 7.30216 7.50694 7.82122 7.49445 8.46167C7.48195 9.10112 8.02008 9.64765 8.66112 9.64715C9.29967 9.64665 9.8248 9.1256 9.8323 8.48465C9.84029 7.85219 9.31117 7.31515 8.67461 7.30865Z" fill="white"/>
<rect x="1" y="0.808594" width="23" height="23" rx="11.5" stroke="url(#paint0_linear_73_589)"/>
</g>
<defs>
<linearGradient id="paint0_linear_73_589" x1="12.5" y1="28.8934" x2="12.5" y2="-3.89096" gradientUnits="userSpaceOnUse">
<stop stop-color="#EDEDEE"/>
<stop offset="0.494792" stop-color="#181C24"/>
<stop offset="1" stop-color="#EDEDEE"/>
</linearGradient>
</defs>
</svg>
