<svg width="17" height="17" viewBox="0 0 17 17" fill="none" xmlns="http://www.w3.org/2000/svg">
<g id="mail">
<mask id="mask0_73_562" style="mask-type:alpha" maskUnits="userSpaceOnUse" x="0" y="0" width="17" height="17">
<rect id="Bounding box" x="0.5" y="0.808594" width="130" height="130" fill="#D9D9D9"/>
</mask>
<g mask="url(#mask0_73_562)">
<path id="mail_2" d="M0.944431 8.36404C0.699986 8.36404 0.490801 8.27708 0.316875 8.10315C0.142653 7.92893 0.055542 7.7196 0.055542 7.47515V2.14182C0.055542 1.89737 0.142653 1.68819 0.316875 1.51426C0.490801 1.34004 0.699986 1.25293 0.944431 1.25293H8.05554C8.29999 1.25293 8.50932 1.34004 8.68354 1.51426C8.85747 1.68819 8.94443 1.89737 8.94443 2.14182V7.47515C8.94443 7.7196 8.85747 7.92893 8.68354 8.10315C8.50932 8.27708 8.29999 8.36404 8.05554 8.36404H0.944431ZM4.49999 5.25293L8.05554 3.03071V2.14182L4.49999 4.36404L0.944431 2.14182V3.03071L4.49999 5.25293Z" fill="white"/>
</g>
</g>
</svg>
