<svg width="25" height="25" viewBox="0 0 25 25" fill="none" xmlns="http://www.w3.org/2000/svg">
<g id="twitter">
<path id="Vector" d="M17.4595 9.26803C17.1424 9.40766 16.7886 9.49359 16.4458 9.54729C16.608 9.52223 16.8476 9.2358 16.9434 9.11765C17.0908 8.94222 17.2125 8.74172 17.2788 8.52332C17.2862 8.50542 17.2936 8.48394 17.2788 8.47319C17.2567 8.46603 17.242 8.46961 17.2235 8.47677C16.8402 8.67727 16.4458 8.82049 16.0256 8.92432C15.9924 8.93148 15.9666 8.92432 15.9445 8.90283C15.9113 8.86345 15.8781 8.82765 15.8413 8.799C15.6643 8.65221 15.4726 8.53764 15.2589 8.45171C14.9787 8.34072 14.6691 8.29418 14.3668 8.31208C14.0719 8.32998 13.7844 8.41233 13.5227 8.5448C13.261 8.67727 13.0251 8.86345 12.8408 9.08543C12.6491 9.31457 12.5053 9.59026 12.4316 9.87668C12.3616 10.156 12.369 10.4316 12.4095 10.7145C12.4169 10.761 12.4095 10.7682 12.369 10.761C10.7213 10.5211 9.35373 9.95187 8.24791 8.72382C8.19999 8.67011 8.17418 8.67011 8.13364 8.7274C7.64707 9.43272 7.88298 10.5677 8.49119 11.1262C8.57228 11.2014 8.65338 11.2766 8.74553 11.341C8.71235 11.3482 8.31057 11.3052 7.94933 11.1262C7.90141 11.0976 7.87561 11.1119 7.87192 11.1656C7.86824 11.2408 7.87192 11.3124 7.88667 11.3947C7.97882 12.1108 8.49119 12.7732 9.18786 13.031C9.27264 13.0632 9.36111 13.0954 9.45326 13.1097C9.29476 13.1419 9.12888 13.167 8.67181 13.1348C8.61652 13.124 8.5944 13.1527 8.61652 13.2064C8.95932 14.1158 9.70023 14.3843 10.2568 14.5383C10.3305 14.5526 10.4043 14.5526 10.4817 14.5669C10.478 14.5741 10.4743 14.5741 10.4669 14.5812C10.2826 14.8533 9.64494 15.0574 9.34636 15.1577C8.80451 15.3403 8.21842 15.4226 7.64707 15.3689C7.55492 15.3546 7.53649 15.3582 7.51069 15.3689C7.48489 15.3832 7.51069 15.4047 7.53649 15.4298C7.65076 15.505 7.76871 15.5694 7.89036 15.6339C8.25159 15.82 8.63126 15.9704 9.02567 16.0742C11.0678 16.622 13.3679 16.221 14.9013 14.7388C16.1067 13.5752 16.5269 11.9748 16.5269 10.3672C16.5269 10.3027 16.6043 10.2705 16.6485 10.2383C16.9618 10.0092 17.2162 9.73705 17.4484 9.42914C17.5 9.36112 17.5 9.30025 17.5 9.27519V9.26803C17.5 9.24297 17.5 9.25013 17.4595 9.26803Z" fill="white"/>
<rect x="1" y="0.808594" width="23" height="22.9996" rx="11.4998" stroke="url(#paint0_linear_73_593)"/>
</g>
<defs>
<linearGradient id="paint0_linear_73_593" x1="12.5" y1="28.8928" x2="12.5" y2="-3.89089" gradientUnits="userSpaceOnUse">
<stop stop-color="#EDEDEE"/>
<stop offset="0.494792" stop-color="#181C24"/>
<stop offset="1" stop-color="#EDEDEE"/>
</linearGradient>
</defs>
</svg>
